<?xml version="1.0" encoding="UTF-8"?>
<svg id="Layer_2" data-name="Layer 2" xmlns="http://www.w3.org/2000/svg" viewBox="0 0 701 132.37">
  <defs>
    <style>
      .cls-1 {
        fill: #fff;
      }
    </style>
  </defs>
  <g id="Layer_1-2" data-name="Layer 1">
    <g>
      <g>
        <path class="cls-1" d="M239.01,85.85V1.53h49.12v14.86h-31.18v21.28h24.63v14.59h-24.63v33.59h-17.94Z"/>
        <path class="cls-1" d="M312.88,1.53V70.99h32.12v14.86h-50.19V1.53h18.07Z"/>
        <path class="cls-1" d="M394.47,1.53l24.23,84.32h-18.2l-5.22-19.41h-24.63l-5.35,19.41h-16.73L372.78,1.53h21.68Zm-19.94,50.73h16.86l-8.03-30.12h-.54l-8.3,30.12Z"/>
        <path class="cls-1" d="M431.19,85.85V16.38h-21.41V1.53h61.17v14.86h-21.82V85.85h-17.93Z"/>
        <path class="cls-1" d="M495.7,1.53V85.85h-18.07V1.53h18.07Z"/>
        <path class="cls-1" d="M547.09,85.85c-1.74-3.48-2.68-8.3-3.21-18.74-.54-8.57-2.81-12.45-10.84-12.45h-9.77v31.19h-17.67V1.53h28.78c20.48,0,30.11,10.04,30.11,25.83,0,11.78-6.83,19.01-14.72,20.88,7.9,2.41,10.84,7.76,11.64,18.07,.8,11.24,1.34,15.66,3.88,19.54h-18.2Zm-13.38-45.24c9.1,0,13.12-3.88,13.12-12.18,0-7.76-4.02-12.45-13.12-12.45h-10.44v24.63h10.44Z"/>
        <path class="cls-1" d="M633.41,46.31c0,25.03-10.57,40.96-32.12,40.96s-32.12-15.93-32.12-40.96v-5.35c0-25.03,10.57-40.96,32.12-40.96s32.12,15.93,32.12,40.96v5.35Zm-18.47-8.97c0-14.99-4.55-22.35-13.65-22.35s-13.65,7.36-13.65,22.35v12.58c0,14.99,4.55,22.35,13.65,22.35s13.65-7.36,13.65-22.35v-12.58Z"/>
        <path class="cls-1" d="M684,51.45h.54V1.53h16.46V85.85h-14.05l-28.91-53.14h-.53v53.14h-16.6V1.53h17l26.1,49.92Z"/>
      </g>
      <g>
        <path class="cls-1" d="M242.48,106.72v25.18h-3.48v-25.18h3.48Z"/>
        <path class="cls-1" d="M301.88,125.98v-19.26h3.24v25.18h-2.76l-14.63-20.22v20.22h-3.24v-25.18h3.6l13.79,19.26Z"/>
        <path class="cls-1" d="M346.7,122.7c.2,4.6,3.36,6.95,7.59,6.95,3.76,0,6.11-1.6,6.11-4.36,0-2.32-1.52-3.44-4.8-4.08l-5-.96c-3.72-.72-6.27-2.72-6.27-6.63,0-4.4,3.48-7.39,8.99-7.39,6.31,0,9.95,3.36,9.99,9.03l-3.16,.16c-.12-4.16-2.64-6.51-6.79-6.51-3.64,0-5.68,1.72-5.68,4.52,0,2.48,1.64,3.28,4.56,3.84l4.56,.88c4.6,.88,6.91,2.88,6.91,6.92,0,4.63-4,7.31-9.43,7.31-6.2,0-10.71-3.4-10.71-9.47l3.12-.2Z"/>
        <path class="cls-1" d="M408.91,131.9v-22.3h-9.15v-2.88h21.9v2.88h-9.31v22.3h-3.44Z"/>
        <path class="cls-1" d="M463.55,106.72v25.18h-3.48v-25.18h3.48Z"/>
        <path class="cls-1" d="M511.14,131.9v-22.3h-9.15v-2.88h21.9v2.88h-9.31v22.3h-3.44Z"/>
        <path class="cls-1" d="M561.99,122.26v-15.55h3.44v15.59c0,4.8,2.36,7.15,6.75,7.15s6.83-2.36,6.83-7.11v-15.63h3.4v15.55c0,7.35-4.56,10.11-10.23,10.11s-10.19-2.76-10.19-10.11Z"/>
        <path class="cls-1" d="M629.63,131.9v-22.3h-9.15v-2.88h21.9v2.88h-9.31v22.3h-3.44Z"/>
        <path class="cls-1" d="M701,131.9h-17.95v-25.18h17.59v2.88h-14.23v7.91h11.31v2.84h-11.31v8.67h14.59v2.88Z"/>
      </g>
      <g>
        <path class="cls-1" d="M0,1.53V131.61H49.52c-19.6-14.91-32.26-38.47-32.26-64.99S29.97,16.43,49.64,1.53"/>
        <path class="cls-1" d="M197.74,1.53V131.61h-49.52c19.6-14.91,32.26-38.47,32.26-64.99,0-26.58-12.71-50.19-32.39-65.09"/>
      </g>
      <circle class="cls-1" cx="98.4" cy="66.57" r="55.59"/>
    </g>
  </g>
</svg>