<?xml version="1.0" encoding="UTF-8" standalone="no"?>
<svg
   width="337.06558"
   height="122.358"
   viewBox="0 0 337.06559 122.358"
   version="1.1"
   id="svg8"
   sodipodi:docname="nemos-text.svg"
   inkscape:version="1.2.2 (b0a8486541, 2022-12-01)"
   xmlns:inkscape="http://www.inkscape.org/namespaces/inkscape"
   xmlns:sodipodi="http://sodipodi.sourceforge.net/DTD/sodipodi-0.dtd"
   xmlns="http://www.w3.org/2000/svg"
   xmlns:svg="http://www.w3.org/2000/svg"
   xmlns:rdf="http://www.w3.org/1999/02/22-rdf-syntax-ns#"
   xmlns:cc="http://creativecommons.org/ns#"
   xmlns:dc="http://purl.org/dc/elements/1.1/">
  <sodipodi:namedview
     id="namedview2531"
     pagecolor="#ffffff"
     bordercolor="#000000"
     borderopacity="0.25"
     inkscape:showpageshadow="2"
     inkscape:pageopacity="0.0"
     inkscape:pagecheckerboard="0"
     inkscape:deskcolor="#d1d1d1"
     showgrid="false"
     inkscape:zoom="2.1075036"
     inkscape:cx="253.1431"
     inkscape:cy="61.20986"
     inkscape:window-width="3812"
     inkscape:window-height="2080"
     inkscape:window-x="2892"
     inkscape:window-y="64"
     inkscape:window-maximized="1"
     inkscape:current-layer="svg8" />
  <defs
     id="defs2" />
  <metadata
     id="metadata5">
    <rdf:RDF>
      <cc:Work
         rdf:about="">
        <dc:format>image/svg+xml</dc:format>
        <dc:type
           rdf:resource="http://purl.org/dc/dcmitype/StillImage" />
      </cc:Work>
    </rdf:RDF>
  </metadata>
  <rect
     style="fill:#ffffff;stroke-width:2.317;stroke-miterlimit:11.5;stop-color:#000000"
     id="rect1122"
     width="337.06558"
     height="122.358"
     x="-2.1902533"
     y="-5.0311708"
     transform="translate(2.1902533,5.0311708)" />
  <path
     d="m 710.5105,577.0794 h 248.238 v 83.99029 h -248.238 z"
     style="fill:#000000;fill-opacity:0;fill-rule:nonzero;stroke:none"
     id="path304"
     transform="matrix(1.3333333,0,0,-1.3333333,-945.15706,886.45732)"
     clip-path="none" />
  <path
     d="m 815.3724,581.7735 v 34.604 h 9.7988 l 9.2016,-23.9652 h 0.0934 v 23.9652 h 6.7565 v -34.604 h -9.5562 l -9.4443,25.3044 h -0.0933 v -25.3044 z"
     style="fill:#000000;fill-opacity:1;fill-rule:nonzero;stroke:none"
     id="path306"
     transform="matrix(1.3333333,0,0,-1.3333333,-945.15706,886.45732)"
     clip-path="none" />
  <path
     d="m 853.6579,592.7996 c 0,-2.879 0.098,-7.1905 3.0704,-7.1905 2.3937,0 2.8743,2.3004 2.8743,4.3115 h 6.8499 c -0.0934,-2.6317 -0.9566,-4.7922 -2.5851,-6.276 -1.6284,-1.4838 -3.9802,-2.333 -7.1391,-2.333 -8.7257,0 -9.8736,5.3193 -9.8736,12.8925 0,6.6119 0.9566,12.2672 9.8736,12.2672 9.1036,0 10.1115,-5.8933 9.8688,-13.6577 z m 6.1687,3.7842 c 0,2.3331 0.098,5.702 -3.1123,5.702 -3.117,0 -3.0704,-3.6396 -3.0704,-5.702 z"
     style="fill:#000000;fill-opacity:1;fill-rule:nonzero;stroke:none"
     id="path308"
     transform="matrix(1.3333333,0,0,-1.3333333,-945.15706,886.45732)"
     clip-path="none" />
  <path
     d="m 872.0612,581.7735 v 34.604 h 11.6653 l 5.4127,-23.5313 h 0.084 l 5.7486,23.5313 h 11.2641 v -34.604 H 899.19 v 26.6949 h -0.0933 l -6.6632,-26.6949 h -6.9059 l -6.3273,26.6949 h -0.0933 v -26.6949 z"
     style="fill:#000000;fill-opacity:1;fill-rule:nonzero;stroke:none"
     id="path310"
     transform="matrix(1.3333333,0,0,-1.3333333,-945.15706,886.45732)"
     clip-path="none" />
  <path
     d="m 911.6906,594.1901 c 0,6.6119 0.9565,12.2672 9.8735,12.2672 8.917,0 9.8689,-5.6553 9.8689,-12.2672 0,-7.5732 -1.1479,-12.8926 -9.8689,-12.8926 -8.721,0 -9.8735,5.3194 -9.8735,12.8926 z m 12.9858,0.3826 c 0,5.0301 -0.238,7.5685 -3.1123,7.5685 -2.8743,0 -3.117,-2.5384 -3.117,-7.5685 0,-7.3818 0.6253,-8.9636 3.117,-8.9636 2.4917,0 3.1216,1.5818 3.1216,8.9636 h -0.009 z"
     style="fill:#000000;fill-opacity:1;fill-rule:nonzero;stroke:none"
     id="path312"
     transform="matrix(1.3333333,0,0,-1.3333333,-945.15706,886.45732)"
     clip-path="none" />
  <path
     d="m 946.4346,581.1996 c -8.9637,0 -10.6388,5.2727 -10.2655,11.264 h 7.2371 c 0,-3.3083 0.1447,-6.0893 4.1202,-6.0893 2.4451,0 3.6443,1.5818 3.6443,3.9336 0,6.2292 -14.5723,6.6118 -14.5723,16.9147 0,5.4173 2.5897,9.7288 11.4086,9.7288 7.0459,0 10.5408,-3.1636 10.0649,-10.4008 h -7.0459 c 0,2.5897 -0.4339,5.2261 -3.3549,5.2261 -2.3331,0 -3.7329,-1.2925 -3.7329,-3.6909 0,-6.5652 14.5676,-5.9913 14.5676,-16.8681 0.005,-8.9636 -6.5605,-10.0181 -12.0712,-10.0181 z"
     style="fill:#000000;fill-opacity:1;fill-rule:nonzero;stroke:none"
     id="path314"
     transform="matrix(1.3333333,0,0,-1.3333333,-945.15706,886.45732)"
     clip-path="none" />
  <path
     d="m 774.903,610.1436 c -3.7458,1.5057 -7.6643,2.5402 -11.6653,3.0796 -0.147,3.1483 -2.7415,5.6258 -5.8933,5.6273 h -0.0653 v 18.6646 h 8.637 c 1.2009,0 2.1744,0.9734 2.1744,2.1744 0,1.2008 -0.9735,2.1744 -2.1744,2.1744 h -10.8068 c -1.199,-0.003 -2.1697,-0.9754 -2.1697,-2.1744 v 0 -20.839 c -3.1147,-0.009 -5.6852,-2.4388 -5.87,-5.548 -12.3419,-1.6238 -22.0195,-6.9992 -24.7865,-13.849 h -4.3068 c 0.3644,1.303 0.545,2.6505 0.5366,4.0035 0,4.4281 -1.7965,8.0117 -4.0035,8.0117 -2.2071,0 -3.9989,-3.5929 -3.9989,-8.0117 0,-4.4188 1.7964,-8.0117 4.0082,-8.0117 -2.2118,0 -4.0082,-3.5883 -4.0082,-8.0118 0,-4.4235 1.7964,-8.0211 4.0082,-8.0211 2.2117,0 4.0035,3.5883 4.0035,8.0118 0.006,1.358 -0.1778,2.7103 -0.5459,4.0175 h 4.2975 c 3.3363,-8.217 16.6627,-14.3623 32.5976,-14.3623 7.5078,0 14.437,1.3625 20.0177,3.6629 -6.5955,8.689 -6.5955,20.7075 0,29.3966 l 0.0139,0.005 z m -32.7655,-19.1312 c -2.9533,0 -5.3474,2.3941 -5.3474,5.3474 0,2.9533 2.3941,5.3474 5.3474,5.3474 2.9533,0 5.3474,-2.3941 5.3474,-5.3474 -0.003,-2.9577 -2.4037,-5.3525 -5.3614,-5.3474 z m 16.1635,0 c -2.9533,0 -5.3474,2.3941 -5.3474,5.3474 0,2.9533 2.3941,5.3474 5.3474,5.3474 2.9533,0 5.3473,-2.3941 5.3473,-5.3474 -0.002,-2.9577 -2.4037,-5.3525 -5.3613,-5.3474 z"
     style="fill:#1da9d5;fill-opacity:1;fill-rule:nonzero;stroke:none"
     id="path316"
     transform="matrix(1.3333333,0,0,-1.3333333,-945.15706,886.45732)"
     clip-path="none" />
  <path
     d="m 777.3434,609.0237 c -6.3652,-7.9334 -6.3652,-19.2235 0,-27.1569 6.7053,3.3596 10.9141,8.1984 10.9141,13.5785 0,5.38 -4.2088,10.2234 -10.9141,13.5784 z"
     style="fill:#1da9d5;fill-opacity:1;fill-rule:nonzero;stroke:none"
     id="path318"
     transform="matrix(1.3333333,0,0,-1.3333333,-945.15706,886.45732)"
     clip-path="none" />
  <path
     d="m 769.4857,634.1228 c -0.22,10e-4 -0.4268,0.1048 -0.56,0.2799 l -0.6999,0.9333 c -0.1158,0.1515 -0.1658,0.3432 -0.1386,0.532 0.0273,0.1887 0.1293,0.3586 0.2833,0.4712 0.1491,0.1109 0.3361,0.1579 0.5199,0.1308 0.1838,-0.0271 0.3493,-0.1262 0.46,-0.2755 l 0.6999,-0.9332 c 0.159,-0.2121 0.1846,-0.4958 0.066,-0.7329 -0.1185,-0.2372 -0.3608,-0.387 -0.626,-0.387 l -0.005,-0.0186 z"
     style="fill:#1ca8d4;fill-opacity:1;fill-rule:nonzero;stroke:none"
     id="path320"
     transform="matrix(1.3333333,0,0,-1.3333333,-945.15706,886.45732)"
     clip-path="none" />
  <path
     d="m 791.8598,604.2642 c -0.2205,-7e-4 -0.4283,0.1032 -0.56,0.28 l -1.4651,1.9318 c -0.1506,0.2 -0.1829,0.4652 -0.0847,0.6955 0.0982,0.2303 0.312,0.3906 0.5606,0.4204 0.2485,0.0298 0.4941,-0.0755 0.6439,-0.276 l 1.4559,-1.9411 c 0.159,-0.2121 0.1846,-0.4959 0.0661,-0.733 -0.1186,-0.2371 -0.3609,-0.3869 -0.6261,-0.3869 l 0.009,0.009 z m -3.1963,4.2649 c -0.2205,-8e-4 -0.4283,0.1031 -0.56,0.2799 l -1.4558,1.9412 c -0.1109,0.149 -0.158,0.3361 -0.1308,0.5199 0.0271,0.1838 0.1262,0.3493 0.2754,0.4599 0.1478,0.1112 0.3337,0.1589 0.5167,0.1326 0.183,-0.0263 0.348,-0.1243 0.4586,-0.2725 l 1.4558,-1.9412 c 0.2319,-0.3092 0.1692,-0.7479 -0.14,-0.9798 -0.1214,-0.0903 -0.2686,-0.1394 -0.4199,-0.14 z m -3.1963,4.2695 c -0.221,-0.003 -0.4298,0.1013 -0.56,0.2799 l -1.4558,1.9365 c -0.232,0.3105 -0.1682,0.7503 0.1423,0.9822 0.3105,0.2319 0.7503,0.1682 0.9822,-0.1423 l 1.4512,-1.9411 c 0.1601,-0.2112 0.1862,-0.4951 0.0672,-0.732 -0.1189,-0.2368 -0.3621,-0.3854 -0.6271,-0.3832 z m -3.1963,4.2648 c -0.2211,-0.003 -0.4298,0.1014 -0.56,0.28 l -1.4511,1.9364 c -0.2324,0.3093 -0.1699,0.7483 0.1396,0.9804 0.3094,0.2321 0.7484,0.1692 0.9802,-0.1405 l 1.4559,-1.9364 c 0.2319,-0.3093 0.1692,-0.748 -0.14,-0.9799 -0.1216,-0.0934 -0.2714,-0.1428 -0.4246,-0.14 z m -3.1963,4.2649 c -0.2202,7e-4 -0.4273,0.1043 -0.56,0.2799 l -1.4511,1.9365 c -0.1507,0.2 -0.1831,0.4652 -0.0849,0.6956 0.0982,0.2304 0.312,0.3907 0.5607,0.4205 0.2486,0.0298 0.4942,-0.0756 0.644,-0.2762 l 1.4512,-1.9365 c 0.2319,-0.3092 0.1692,-0.7479 -0.14,-0.9799 -0.1214,-0.0902 -0.2686,-0.1393 -0.4199,-0.1399 z m -3.1963,4.2788 c -0.22,0.001 -0.4268,0.1048 -0.56,0.28 l -1.4511,1.9411 c -0.231,0.3092 -0.1679,0.7471 0.1408,0.9786 0.3088,0.2316 0.7468,0.1696 0.979,-0.1387 l 1.4512,-1.9411 c 0.1591,-0.2121 0.1846,-0.4959 0.0661,-0.733 -0.1185,-0.2371 -0.3609,-0.3869 -0.626,-0.3869 z m -3.1963,4.2648 c -0.22,10e-4 -0.4268,0.1049 -0.56,0.28 l -1.4511,1.9411 c -0.2311,0.3093 -0.1681,0.7472 0.1407,0.9789 0.3089,0.2316 0.747,0.1694 0.9791,-0.139 l 1.4512,-1.9411 c 0.1591,-0.2121 0.1846,-0.4959 0.0661,-0.7329 -0.1185,-0.2372 -0.3609,-0.387 -0.626,-0.387 z"
     style="fill:#1ca8d4;fill-opacity:1;fill-rule:nonzero;stroke:none"
     id="path322"
     transform="matrix(1.3333333,0,0,-1.3333333,-945.15706,886.45732)"
     clip-path="none" />
  <path
     d="m 794.3001,601.0073 c -0.2204,-8e-4 -0.4282,0.1031 -0.5599,0.2799 l -0.6999,0.9333 c -0.2319,0.3105 -0.1682,0.7503 0.1423,0.9822 0.3105,0.2319 0.7503,0.1682 0.9822,-0.1423 l 0.6953,-0.9332 c 0.1601,-0.2113 0.1862,-0.4951 0.0673,-0.732 -0.119,-0.2368 -0.3622,-0.3855 -0.6273,-0.3832 v -0.005 z"
     style="fill:#1ca8d4;fill-opacity:1;fill-rule:nonzero;stroke:none"
     id="path324"
     transform="matrix(1.3333333,0,0,-1.3333333,-945.15706,886.45732)"
     clip-path="none" />
  <path
     d="m 770.1996,640.1234 c -0.3236,0.0281 -0.5854,0.2752 -0.6321,0.5967 -0.0467,0.3214 0.1339,0.6328 0.4361,0.7518 l 1.1199,0.3267 c 0.2461,0.0939 0.5241,0.0418 0.7194,-0.1351 0.1953,-0.1768 0.2748,-0.4483 0.2056,-0.7025 -0.0691,-0.2542 -0.2751,-0.4481 -0.5331,-0.5016 l -1.1152,-0.3313 c -0.0664,-0.0103 -0.1338,-0.0119 -0.2006,-0.005 z"
     style="fill:#1ca8d4;fill-opacity:1;fill-rule:nonzero;stroke:none"
     id="path326"
     transform="matrix(1.3333333,0,0,-1.3333333,-945.15706,886.45732)"
     clip-path="none" />
  <path
     d="m 774.1005,641.2713 c -0.3484,0 -0.6436,0.2561 -0.6929,0.6009 -0.0493,0.3448 0.1625,0.6734 0.4969,0.7709 l 2.3331,0.6859 c 0.3711,0.1096 0.7607,-0.1025 0.8702,-0.4736 0.1095,-0.3711 -0.1025,-0.7607 -0.4736,-0.8702 l -2.3331,-0.6813 c -0.0644,-0.0227 -0.1323,-0.0337 -0.2006,-0.0326 z m 5.1001,1.5071 c -0.3493,-0.002 -0.6468,0.2531 -0.6973,0.5987 -0.0505,0.3455 0.1613,0.6754 0.4966,0.7732 l 2.3331,0.6859 c 0.3709,0.1091 0.7601,-0.103 0.8695,-0.4738 0.1095,-0.3708 -0.1022,-0.7602 -0.4729,-0.87 l -2.3331,-0.686 c -0.0637,-0.0184 -0.1296,-0.0278 -0.1959,-0.028 z m 5.0954,1.4932 c -0.3484,0 -0.6436,0.2561 -0.6929,0.601 -0.0493,0.3447 0.1625,0.6733 0.4969,0.7708 l 2.3331,0.6813 c 0.3593,0.0806 0.7197,-0.131 0.8243,-0.4842 0.1046,-0.3531 -0.0824,-0.7269 -0.4277,-0.855 l -2.3331,-0.6859 c -0.0653,-0.0185 -0.1328,-0.0279 -0.2006,-0.028 z m 5.1,1.5025 c -0.3483,0 -0.6436,0.2561 -0.6928,0.6009 -0.0493,0.3448 0.1625,0.6734 0.4969,0.7709 l 2.333,0.686 c 0.3711,0.1095 0.7607,-0.1026 0.8703,-0.4737 0.1095,-0.371 -0.1026,-0.7607 -0.4737,-0.8702 l -2.333,-0.6859 c -0.066,-0.0134 -0.1335,-0.0181 -0.2007,-0.014 z m 5.1048,1.5212 c -0.3492,-0.002 -0.6467,0.253 -0.6973,0.5986 -0.0505,0.3455 0.1614,0.6754 0.4966,0.7732 l 2.3331,0.6813 c 0.3594,0.0806 0.7198,-0.1311 0.8244,-0.4842 0.1045,-0.3532 -0.0824,-0.7269 -0.4278,-0.855 l -2.333,-0.6859 c -0.0637,-0.0185 -0.1297,-0.0279 -0.196,-0.028 z m 5.0954,1.5071 c -0.3483,0 -0.6436,0.2561 -0.6929,0.601 -0.0493,0.3447 0.1625,0.6733 0.4969,0.7709 l 2.3331,0.6812 c 0.3711,0.1095 0.7607,-0.1025 0.8702,-0.4736 0.1095,-0.3711 -0.1025,-0.7607 -0.4736,-0.8702 l -2.3331,-0.6813 c -0.0667,-0.0189 -0.1358,-0.0283 -0.2053,-0.028 h 0.005 z m 5.1001,1.5025 c -0.3484,0 -0.6436,0.2561 -0.6929,0.601 -0.0493,0.3447 0.1625,0.6733 0.4969,0.7709 l 2.3331,0.6859 c 0.3711,0.1095 0.7607,-0.1025 0.8702,-0.4736 0.1095,-0.3711 -0.1025,-0.7608 -0.4736,-0.8703 l -2.3331,-0.6859 c -0.0668,-0.0185 -0.1359,-0.0279 -0.2053,-0.028 h 0.005 z m 5.1001,1.5072 c -0.3493,-0.002 -0.6468,0.2531 -0.6973,0.5986 -0.0505,0.3455 0.1613,0.6755 0.4966,0.7732 l 2.3331,0.6813 c 0.2449,0.0908 0.5202,0.0377 0.7137,-0.1379 0.1935,-0.1756 0.2731,-0.4444 0.2064,-0.697 -0.0667,-0.2527 -0.2686,-0.4471 -0.5235,-0.5043 l -2.3331,-0.6859 c -0.0652,-0.0189 -0.1327,-0.0284 -0.2006,-0.028 h 0.005 z m 5.0954,1.5071 c -0.3425,0.007 -0.6294,0.2614 -0.678,0.6005 -0.0486,0.3391 0.1553,0.6635 0.482,0.7667 l 2.333,0.6859 c 0.177,0.0537 0.3681,0.0346 0.5309,-0.053 0.1629,-0.0875 0.2842,-0.2364 0.337,-0.4136 0.1093,-0.3695 -0.0986,-0.7582 -0.4666,-0.8726 l -2.333,-0.6812 c -0.0681,-0.0209 -0.1388,-0.0319 -0.21,-0.0327 h 0.005 z m 5.1,1.5025 c -0.3483,0 -0.6436,0.2561 -0.6928,0.601 -0.0493,0.3448 0.1625,0.6733 0.4969,0.7709 l 2.333,0.6859 c 0.3711,0.1095 0.7607,-0.1025 0.8703,-0.4736 0.1095,-0.3711 -0.1026,-0.7607 -0.4737,-0.8703 l -2.333,-0.6859 c -0.0669,-0.0185 -0.1359,-0.0279 -0.2053,-0.028 h 0.005 z m 5.1001,1.5072 c -0.3492,-0.002 -0.6467,0.2531 -0.6972,0.5986 -0.0506,0.3455 0.1613,0.6755 0.4966,0.7732 l 2.333,0.6813 c 0.3594,0.0806 0.7198,-0.131 0.8244,-0.4842 0.1046,-0.3532 -0.0824,-0.7269 -0.4277,-0.855 l -2.3331,-0.6859 c -0.0652,-0.0189 -0.1328,-0.0283 -0.2007,-0.028 h 0.005 z m 5.0954,1.5025 c -0.3179,-0.009 -0.6016,0.1985 -0.6906,0.5039 -0.0536,0.177 -0.0345,0.368 0.053,0.5309 0.0876,0.1629 0.2364,0.2841 0.4137,0.337 l 2.333,0.6859 c 0.3711,0.1095 0.7607,-0.1025 0.8702,-0.4736 0.1096,-0.3711 -0.1025,-0.7607 -0.4736,-0.8702 l -2.333,-0.6813 c -0.0571,-0.0197 -0.1169,-0.0307 -0.1773,-0.0326 h 0.005 z"
     style="fill:#1ca8d4;fill-opacity:1;fill-rule:nonzero;stroke:none"
     id="path328"
     transform="matrix(1.3333333,0,0,-1.3333333,-945.15706,886.45732)"
     clip-path="none" />
  <path
     d="m 835.2827,659.3385 c -0.3466,0.005 -0.6376,0.2621 -0.6843,0.6056 -0.0468,0.3434 0.1649,0.6693 0.4977,0.7663 l 1.1152,0.3313 c 0.2402,0.0713 0.5002,0.009 0.6819,-0.1637 0.1816,-0.1726 0.2573,-0.429 0.1984,-0.6725 -0.0588,-0.2436 -0.2433,-0.4371 -0.4837,-0.5077 l -1.1152,-0.3313 c -0.0683,-0.0193 -0.139,-0.0287 -0.21,-0.028 z"
     style="fill:#1ca8d4;fill-opacity:1;fill-rule:nonzero;stroke:none"
     id="path330"
     transform="matrix(1.3333333,0,0,-1.3333333,-945.15706,886.45732)"
     clip-path="none" />
  <path
     d="m 826.5244,644.4256 c -0.2732,0.2729 -0.7159,0.2729 -0.9892,0 L 821.751,640.52 v 7.1485 c 0,0.3866 -0.3134,0.7 -0.7,0.7 -0.3865,0 -0.6999,-0.3134 -0.6999,-0.7 v -7.0365 l -3.7329,3.6303 c -0.2792,0.2544 -0.7099,0.2413 -0.9732,-0.0296 -0.2633,-0.2708 -0.2642,-0.7017 -0.002,-0.9736 l 4.7081,-4.5868 v -0.784 c -0.002,-4.166 -3.3791,-7.5425 -7.5451,-7.5451 h -7.1858 l -3.201,5.1328 0.7839,1.4791 1.8431,0.5646 c 0.3689,0.1119 0.577,0.5017 0.4649,0.8704 -0.1122,0.3688 -0.5021,0.5766 -0.8708,0.4641 l -1.4559,-0.4433 -0.4666,1.4512 c -0.0673,0.2454 -0.2626,0.4349 -0.5098,0.4949 -0.2473,0.0599 -0.5077,-0.019 -0.68,-0.2062 -0.1723,-0.1872 -0.2296,-0.4532 -0.1493,-0.6946 l 0.5879,-1.8385 -0.7839,-1.4792 -5.562,-0.1959 -0.8866,1.4231 0.4339,1.8665 c 0.0873,0.3773 -0.1477,0.754 -0.525,0.8416 -0.3773,0.0876 -0.7542,-0.1471 -0.8421,-0.5243 l -0.3407,-1.4792 -1.4791,0.3406 c -0.2489,0.0711 -0.5167,-10e-4 -0.6962,-0.1875 -0.1795,-0.1864 -0.2416,-0.4567 -0.1612,-0.7027 0.0803,-0.246 0.2898,-0.4277 0.5447,-0.4723 l 1.8665,-0.4339 0.8866,-1.3998 -2.5991,-4.9415 -1.6751,-0.056 -1.3999,1.3159 c -0.2884,0.199 -0.6797,0.1541 -0.9154,-0.1052 -0.2358,-0.2594 -0.2433,-0.6531 -0.0178,-0.9214 l 1.0872,-1.0219 -1.0358,-1.1105 c -0.1939,-0.2026 -0.2471,-0.5018 -0.1349,-0.7588 0.1121,-0.257 0.3677,-0.4215 0.6481,-0.4171 0.1936,-4e-4 0.3783,0.081 0.5086,0.224 l 1.3159,1.3999 1.6751,0.056 2.949,-4.7175 -0.7932,-1.4698 -1.8665,-0.5646 c -0.3698,-0.1134 -0.5776,-0.5051 -0.4643,-0.8749 0.1134,-0.3698 0.5051,-0.5777 0.8749,-0.4643 l 1.4512,0.4666 0.4433,-1.4512 c 0.0913,-0.2923 0.361,-0.4923 0.6672,-0.4946 0.0698,-9e-4 0.1393,0.0102 0.2054,0.0327 0.3697,0.1122 0.5786,0.5028 0.4666,0.8726 l -0.5646,1.8664 0.7885,1.4792 5.5574,0.1959 0.8912,-1.4231 -0.4339,-1.8665 c -0.0433,-0.1807 -0.0124,-0.3713 0.0858,-0.5291 0.0982,-0.1578 0.2555,-0.2697 0.4368,-0.3108 0.0527,-0.007 0.106,-0.007 0.1586,0 0.3253,2e-4 0.6076,0.2245 0.6813,0.5413 l 0.3406,1.4792 1.4792,-0.3407 c 0.3699,-0.0724 0.7307,0.161 0.8162,0.5281 0.0855,0.3671 -0.1351,0.736 -0.4989,0.8344 l -1.8665,0.434 -0.8865,1.3998 2.3937,4.5028 h 7.6104 c 4.92,0.002 8.9164,3.9739 8.9497,8.8937 v 0.5926 l 4.7874,4.9461 c 0.1304,0.1324 0.2023,0.3116 0.1997,0.4975 -0.003,0.1859 -0.0796,0.3629 -0.2137,0.4917 z m -26.3029,-15.6315 c -0.5657,-0.8889 -1.7447,-1.1512 -2.6339,-0.5859 -0.8892,0.5652 -1.1521,1.744 -0.5873,2.6335 0.5647,0.8895 1.7434,1.153 2.6332,0.5887 0.4279,-0.2714 0.7303,-0.7017 0.8406,-1.1963 0.1103,-0.4945 0.0194,-1.0126 -0.2526,-1.44 z"
     style="fill:#1ca8d4;fill-opacity:1;fill-rule:nonzero;stroke:none"
     id="path332"
     transform="matrix(1.3333333,0,0,-1.3333333,-945.15706,886.45732)"
     clip-path="none" />
</svg>
